<svg width="254" height="31" viewBox="0 0 254 31" fill="none" xmlns="http://www.w3.org/2000/svg">
    <path d="M36.3334 8.54688V6.09091H50.9676V8.54688H45.0677V25H42.224V8.54688H36.3334ZM56.7405 16.5795V25H53.9798V6.09091H56.7036V13.1264H56.879C57.2114 12.3632 57.7192 11.7569 58.4024 11.3075C59.0857 10.8582 59.9782 10.6335 61.08 10.6335C62.0525 10.6335 62.902 10.8336 63.6283 11.2337C64.3608 11.6338 64.9271 12.2308 65.3271 13.0249C65.7334 13.8127 65.9365 14.7976 65.9365 15.9794V25H63.1759V16.3118C63.1759 15.2715 62.9081 14.4652 62.3726 13.8928C61.8371 13.3142 61.0923 13.0249 60.1382 13.0249C59.4858 13.0249 58.901 13.1634 58.384 13.4403C57.8731 13.7173 57.4699 14.1236 57.1744 14.6591C56.8852 15.1884 56.7405 15.8286 56.7405 16.5795ZM75.7327 25.2862C74.3354 25.2862 73.1321 24.9877 72.1226 24.3906C71.1193 23.7874 70.3437 22.9411 69.7959 21.8516C69.2542 20.7559 68.9834 19.4725 68.9834 18.0014C68.9834 16.5488 69.2542 15.2685 69.7959 14.1605C70.3437 13.0526 71.107 12.1877 72.0857 11.5661C73.0705 10.9444 74.2216 10.6335 75.5388 10.6335C76.339 10.6335 77.1146 10.7659 77.8655 11.0305C78.6164 11.2952 79.2905 11.7107 79.8875 12.277C80.4846 12.8433 80.9555 13.5788 81.3002 14.4837C81.6449 15.3823 81.8172 16.4749 81.8172 17.7614V18.7401H70.5438V16.6719H79.112C79.112 15.9455 78.9642 15.3023 78.6688 14.7422C78.3733 14.1759 77.9578 13.7296 77.4223 13.4034C76.893 13.0772 76.2713 12.9141 75.5573 12.9141C74.7817 12.9141 74.1046 13.1049 73.526 13.4865C72.9536 13.862 72.5104 14.3544 72.1965 14.9638C71.8887 15.567 71.7348 16.2225 71.7348 16.9304V18.5462C71.7348 19.4941 71.901 20.3004 72.2334 20.9652C72.5719 21.63 73.0428 22.1378 73.646 22.4886C74.2493 22.8333 74.954 23.0057 75.7604 23.0057C76.2836 23.0057 76.7606 22.9318 77.1915 22.7841C77.6224 22.6302 77.9948 22.4025 78.3087 22.1009C78.6226 21.7992 78.8627 21.4268 79.0289 20.9837L81.6418 21.4545C81.4325 22.224 81.057 22.898 80.5154 23.4766C79.9798 24.049 79.3058 24.4953 78.4933 24.8153C77.687 25.1293 76.7668 25.2862 75.7327 25.2862ZM91.9827 25V6.09091H98.7227C100.188 6.09091 101.403 6.34328 102.37 6.84801C103.342 7.35275 104.069 8.05137 104.549 8.94389C105.029 9.83026 105.269 10.8551 105.269 12.0185C105.269 13.1757 105.026 14.1944 104.54 15.0746C104.059 15.9486 103.333 16.6288 102.361 17.1151C101.394 17.6013 100.178 17.8445 98.7135 17.8445H93.6077V15.3885H98.455C99.3783 15.3885 100.129 15.2562 100.708 14.9915C101.293 14.7268 101.72 14.3421 101.991 13.8374C102.262 13.3326 102.397 12.7263 102.397 12.0185C102.397 11.3044 102.259 10.6858 101.982 10.1626C101.711 9.63944 101.283 9.23935 100.699 8.96236C100.12 8.67921 99.3598 8.53764 98.4181 8.53764H94.8357V25H91.9827ZM101.317 16.4688L105.989 25H102.739L98.1595 16.4688H101.317ZM114.453 25.2862C113.056 25.2862 111.853 24.9877 110.843 24.3906C109.84 23.7874 109.064 22.9411 108.517 21.8516C107.975 20.7559 107.704 19.4725 107.704 18.0014C107.704 16.5488 107.975 15.2685 108.517 14.1605C109.064 13.0526 109.828 12.1877 110.806 11.5661C111.791 10.9444 112.942 10.6335 114.259 10.6335C115.06 10.6335 115.835 10.7659 116.586 11.0305C117.337 11.2952 118.011 11.7107 118.608 12.277C119.205 12.8433 119.676 13.5788 120.021 14.4837C120.366 15.3823 120.538 16.4749 120.538 17.7614V18.7401H109.264V16.6719H117.833C117.833 15.9455 117.685 15.3023 117.389 14.7422C117.094 14.1759 116.679 13.7296 116.143 13.4034C115.614 13.0772 114.992 12.9141 114.278 12.9141C113.502 12.9141 112.825 13.1049 112.247 13.4865C111.674 13.862 111.231 14.3544 110.917 14.9638C110.609 15.567 110.456 16.2225 110.456 16.9304V18.5462C110.456 19.4941 110.622 20.3004 110.954 20.9652C111.293 21.63 111.764 22.1378 112.367 22.4886C112.97 22.8333 113.675 23.0057 114.481 23.0057C115.004 23.0057 115.481 22.9318 115.912 22.7841C116.343 22.6302 116.715 22.4025 117.029 22.1009C117.343 21.7992 117.583 21.4268 117.75 20.9837L120.362 21.4545C120.153 22.224 119.778 22.898 119.236 23.4766C118.701 24.049 118.027 24.4953 117.214 24.8153C116.408 25.1293 115.487 25.2862 114.453 25.2862ZM129.575 25.2862C128.202 25.2862 127.02 24.9754 126.029 24.3537C125.044 23.7259 124.287 22.861 123.758 21.7592C123.229 20.6574 122.964 19.3956 122.964 17.9737C122.964 16.5334 123.235 15.2623 123.776 14.1605C124.318 13.0526 125.081 12.1877 126.066 11.5661C127.051 10.9444 128.211 10.6335 129.547 10.6335C130.624 10.6335 131.584 10.8336 132.428 11.2337C133.271 11.6276 133.951 12.1816 134.468 12.8956C134.991 13.6096 135.302 14.4437 135.401 15.3977H132.714C132.566 14.733 132.228 14.1605 131.698 13.6804C131.175 13.2003 130.473 12.9602 129.593 12.9602C128.824 12.9602 128.15 13.1634 127.571 13.5696C126.999 13.9697 126.552 14.5421 126.232 15.2869C125.912 16.0256 125.752 16.8996 125.752 17.9091C125.752 18.9432 125.909 19.8357 126.223 20.5866C126.537 21.3376 126.98 21.9193 127.553 22.3317C128.131 22.7441 128.811 22.9503 129.593 22.9503C130.116 22.9503 130.59 22.8549 131.015 22.6641C131.446 22.4671 131.806 22.187 132.095 21.8239C132.391 21.4607 132.597 21.0237 132.714 20.5128H135.401C135.302 21.4299 135.004 22.2486 134.505 22.9688C134.006 23.6889 133.339 24.2552 132.502 24.6676C131.671 25.08 130.695 25.2862 129.575 25.2862ZM138.353 25V10.8182H141.114V25H138.353ZM139.747 8.62997C139.267 8.62997 138.855 8.46993 138.51 8.14986C138.171 7.82363 138.002 7.43584 138.002 6.9865C138.002 6.53101 138.171 6.14323 138.51 5.82315C138.855 5.49692 139.267 5.33381 139.747 5.33381C140.227 5.33381 140.637 5.49692 140.975 5.82315C141.32 6.14323 141.492 6.53101 141.492 6.9865C141.492 7.43584 141.32 7.82363 140.975 8.14986C140.637 8.46993 140.227 8.62997 139.747 8.62997ZM144.828 30.3182V10.8182H147.524V13.1172H147.754C147.914 12.8217 148.145 12.4801 148.447 12.0923C148.748 11.7045 149.167 11.366 149.703 11.0767C150.238 10.7812 150.946 10.6335 151.826 10.6335C152.971 10.6335 153.993 10.9228 154.891 11.5014C155.79 12.08 156.495 12.9141 157.006 14.0036C157.523 15.093 157.781 16.4041 157.781 17.9368C157.781 19.4695 157.526 20.7836 157.015 21.8793C156.504 22.9687 155.802 23.8089 154.91 24.3999C154.017 24.9846 152.999 25.277 151.854 25.277C150.992 25.277 150.287 25.1323 149.739 24.843C149.198 24.5537 148.773 24.2152 148.465 23.8274C148.158 23.4396 147.921 23.0949 147.754 22.7933H147.588V30.3182H144.828ZM147.533 17.9091C147.533 18.9062 147.677 19.7803 147.967 20.5312C148.256 21.2822 148.675 21.87 149.222 22.2947C149.77 22.7133 150.441 22.9226 151.235 22.9226C152.06 22.9226 152.749 22.7041 153.303 22.267C153.857 21.8239 154.276 21.2237 154.559 20.4666C154.848 19.7095 154.993 18.857 154.993 17.9091C154.993 16.9735 154.851 16.1333 154.568 15.3885C154.291 14.6437 153.873 14.0559 153.313 13.625C152.759 13.1941 152.066 12.9787 151.235 12.9787C150.435 12.9787 149.758 13.1849 149.204 13.5973C148.656 14.0097 148.241 14.5852 147.957 15.3239C147.674 16.0625 147.533 16.9242 147.533 17.9091ZM166.987 25.2862C165.589 25.2862 164.386 24.9877 163.377 24.3906C162.373 23.7874 161.598 22.9411 161.05 21.8516C160.508 20.7559 160.237 19.4725 160.237 18.0014C160.237 16.5488 160.508 15.2685 161.05 14.1605C161.598 13.0526 162.361 12.1877 163.34 11.5661C164.324 10.9444 165.475 10.6335 166.793 10.6335C167.593 10.6335 168.368 10.7659 169.119 11.0305C169.87 11.2952 170.544 11.7107 171.141 12.277C171.738 12.8433 172.209 13.5788 172.554 14.4837C172.899 15.3823 173.071 16.4749 173.071 17.7614V18.7401H161.798V16.6719H170.366C170.366 15.9455 170.218 15.3023 169.923 14.7422C169.627 14.1759 169.212 13.7296 168.676 13.4034C168.147 13.0772 167.525 12.9141 166.811 12.9141C166.036 12.9141 165.359 13.1049 164.78 13.4865C164.207 13.862 163.764 14.3544 163.45 14.9638C163.143 15.567 162.989 16.2225 162.989 16.9304V18.5462C162.989 19.4941 163.155 20.3004 163.487 20.9652C163.826 21.63 164.297 22.1378 164.9 22.4886C165.503 22.8333 166.208 23.0057 167.014 23.0057C167.537 23.0057 168.015 22.9318 168.445 22.7841C168.876 22.6302 169.249 22.4025 169.563 22.1009C169.877 21.7992 170.117 21.4268 170.283 20.9837L172.896 21.4545C172.686 22.224 172.311 22.898 171.769 23.4766C171.234 24.049 170.56 24.4953 169.747 24.8153C168.941 25.1293 168.021 25.2862 166.987 25.2862ZM186.939 25L181.695 6.09091H184.695L188.379 20.7344H188.555L192.386 6.09091H195.359L199.191 20.7436H199.367L203.041 6.09091H206.051L200.798 25H197.926L193.947 10.8366H193.799L189.82 25H186.939ZM213.008 25.2862C211.679 25.2862 210.518 24.9815 209.527 24.3722C208.536 23.7628 207.767 22.9103 207.219 21.8146C206.671 20.719 206.397 19.4387 206.397 17.9737C206.397 16.5026 206.671 15.2161 207.219 14.1143C207.767 13.0125 208.536 12.157 209.527 11.5476C210.518 10.9382 211.679 10.6335 213.008 10.6335C214.338 10.6335 215.498 10.9382 216.489 11.5476C217.48 12.157 218.249 13.0125 218.797 14.1143C219.345 15.2161 219.619 16.5026 219.619 17.9737C219.619 19.4387 219.345 20.719 218.797 21.8146C218.249 22.9103 217.48 23.7628 216.489 24.3722C215.498 24.9815 214.338 25.2862 213.008 25.2862ZM213.017 22.9688C213.879 22.9688 214.593 22.741 215.16 22.2855C215.726 21.83 216.144 21.2237 216.415 20.4666C216.692 19.7095 216.831 18.8755 216.831 17.9645C216.831 17.0597 216.692 16.2287 216.415 15.4716C216.144 14.7083 215.726 14.0959 215.16 13.6342C214.593 13.1726 213.879 12.9418 213.017 12.9418C212.15 12.9418 211.429 13.1726 210.857 13.6342C210.291 14.0959 209.869 14.7083 209.592 15.4716C209.321 16.2287 209.186 17.0597 209.186 17.9645C209.186 18.8755 209.321 19.7095 209.592 20.4666C209.869 21.2237 210.291 21.83 210.857 22.2855C211.429 22.741 212.15 22.9688 213.017 22.9688ZM222.701 25V10.8182H225.369V13.071H225.517C225.775 12.3078 226.231 11.7076 226.883 11.2706C227.542 10.8274 228.286 10.6058 229.117 10.6058C229.29 10.6058 229.493 10.612 229.727 10.6243C229.967 10.6366 230.155 10.652 230.29 10.6705V13.3111C230.179 13.2803 229.982 13.2464 229.699 13.2095C229.416 13.1664 229.133 13.1449 228.85 13.1449C228.197 13.1449 227.616 13.2834 227.105 13.5604C226.6 13.8312 226.2 14.2098 225.904 14.696C225.609 15.1761 225.461 15.724 225.461 16.3395V25H222.701ZM235.44 6.09091V25H232.679V6.09091H235.44ZM244.463 25.277C243.318 25.277 242.296 24.9846 241.397 24.3999C240.505 23.8089 239.803 22.9687 239.292 21.8793C238.787 20.7836 238.535 19.4695 238.535 17.9368C238.535 16.4041 238.791 15.093 239.301 14.0036C239.818 12.9141 240.526 12.08 241.425 11.5014C242.324 10.9228 243.342 10.6335 244.481 10.6335C245.361 10.6335 246.069 10.7812 246.605 11.0767C247.146 11.366 247.565 11.7045 247.86 12.0923C248.162 12.4801 248.396 12.8217 248.562 13.1172H248.728V6.09091H251.489V25H248.793V22.7933H248.562C248.396 23.0949 248.156 23.4396 247.842 23.8274C247.534 24.2152 247.109 24.5537 246.568 24.843C246.026 25.1323 245.324 25.277 244.463 25.277ZM245.072 22.9226C245.866 22.9226 246.537 22.7133 247.085 22.2947C247.639 21.87 248.057 21.2822 248.34 20.5312C248.63 19.7803 248.774 18.9062 248.774 17.9091C248.774 16.9242 248.633 16.0625 248.35 15.3239C248.067 14.5852 247.651 14.0097 247.103 13.5973C246.555 13.1849 245.878 12.9787 245.072 12.9787C244.241 12.9787 243.549 13.1941 242.995 13.625C242.441 14.0559 242.022 14.6437 241.739 15.3885C241.462 16.1333 241.323 16.9735 241.323 17.9091C241.323 18.857 241.465 19.7095 241.748 20.4666C242.031 21.2237 242.45 21.8239 243.004 22.267C243.564 22.7041 244.253 22.9226 245.072 22.9226Z" fill="currentColor"/>
    <path d="M7 7V3C7 2.73478 7.10536 2.48043 7.29289 2.29289C7.48043 2.10536 7.73478 2 8 2C8.26522 2 8.51957 2.10536 8.70711 2.29289C8.89464 2.48043 9 2.73478 9 3V7C9 7.26522 8.89464 7.51957 8.70711 7.70711C8.51957 7.89464 8.26522 8 8 8C7.73478 8 7.48043 7.89464 7.29289 7.70711C7.10536 7.51957 7 7.26522 7 7ZM12 8C12.2652 8 12.5196 7.89464 12.7071 7.70711C12.8946 7.51957 13 7.26522 13 7V3C13 2.73478 12.8946 2.48043 12.7071 2.29289C12.5196 2.10536 12.2652 2 12 2C11.7348 2 11.4804 2.10536 11.2929 2.29289C11.1054 2.48043 11 2.73478 11 3V7C11 7.26522 11.1054 7.51957 11.2929 7.70711C11.4804 7.89464 11.7348 8 12 8ZM16 8C16.2652 8 16.5196 7.89464 16.7071 7.70711C16.8946 7.51957 17 7.26522 17 7V3C17 2.73478 16.8946 2.48043 16.7071 2.29289C16.5196 2.10536 16.2652 2 16 2C15.7348 2 15.4804 2.10536 15.2929 2.29289C15.1054 2.48043 15 2.73478 15 3V7C15 7.26522 15.1054 7.51957 15.2929 7.70711C15.4804 7.89464 15.7348 8 16 8ZM28 15V16C27.9996 17.2719 27.5145 18.4959 26.6434 19.4227C25.7723 20.3496 24.5807 20.9096 23.3113 20.9888C22.6291 22.9182 21.4678 24.6426 19.9363 26H23C23.2652 26 23.5196 26.1054 23.7071 26.2929C23.8946 26.4804 24 26.7348 24 27C24 27.2652 23.8946 27.5196 23.7071 27.7071C23.5196 27.8946 23.2652 28 23 28H1C0.734784 28 0.48043 27.8946 0.292893 27.7071C0.105357 27.5196 0 27.2652 0 27C0 26.7348 0.105357 26.4804 0.292893 26.2929C0.48043 26.1054 0.734784 26 1 26H4.0675C2.79163 24.8728 1.76937 23.4878 1.06822 21.9364C0.367076 20.385 0.00298857 18.7025 0 17V11C0 10.7348 0.105357 10.4804 0.292893 10.2929C0.48043 10.1054 0.734784 10 1 10H23C24.3261 10 25.5979 10.5268 26.5355 11.4645C27.4732 12.4021 28 13.6739 28 15ZM22 12H2V17C2.00386 18.8776 2.53447 20.7164 3.5315 22.3075C4.52853 23.8985 5.95199 25.1778 7.64 26H16.36C18.048 25.1778 19.4715 23.8985 20.4685 22.3075C21.4655 20.7164 21.9961 18.8776 22 17V12ZM26 15C25.9998 14.3798 25.8074 13.7749 25.4492 13.2685C25.0911 12.7621 24.5848 12.3792 24 12.1725V17C23.9992 17.628 23.9491 18.2549 23.85 18.875C24.4705 18.6917 25.015 18.3127 25.4025 17.7946C25.79 17.2765 25.9996 16.647 26 16V15Z" fill="currentColor"/>
</svg>